<svg width="22" height="22" viewBox="0 0 24 23" fill="none" xmlns="http://www.w3.org/2000/svg">
<path fill-rule="evenodd" clip-rule="evenodd" d="M16.4443 0.110718H1.9999C1.38879 0.110718 0.888794 0.610718 0.888794 1.22183V16.7774L5.33324 12.3329H16.4443C17.0555 12.3329 17.5555 11.8329 17.5555 11.2218V1.22183C17.5555 0.610718 17.0555 0.110718 16.4443 0.110718ZM15.3332 2.33286V10.1106H4.41103L3.75547 10.7662L3.11103 11.4106V2.33286H15.3332ZM19.7777 4.55518H21.9999C22.611 4.55518 23.111 5.05518 23.111 5.66629V22.333L18.6666 17.8885H6.44435C5.83324 17.8885 5.33324 17.3885 5.33324 16.7774V14.5552H19.7777V4.55518Z" fill="#8885FF"/>
</svg>
